<svg width="89" height="77" viewBox="0 0 89 77" fill="none" xmlns="http://www.w3.org/2000/svg">
<path d="M0 10.7188C0 7.87596 1.11777 5.14961 3.10741 3.13945C5.09706 1.12929 7.79559 0 10.6094 0H74.2656C77.0794 0 79.7779 1.12929 81.7676 3.13945C83.7572 5.14961 84.875 7.87596 84.875 10.7188V25.0604C84.3229 24.7753 83.754 24.5247 83.1714 24.3101L83.1108 24.2856L82.3985 24.0468L80.1644 23.3669C79.7211 23.2313 79.2695 23.1249 78.8125 23.0484V10.7188C78.8125 9.50041 78.3335 8.33197 77.4808 7.47048C76.628 6.60898 75.4715 6.125 74.2656 6.125H10.6094C9.40347 6.125 8.24695 6.60898 7.39425 7.47048C6.54154 8.33197 6.0625 9.50041 6.0625 10.7188V50.5312C6.0625 51.7496 6.54154 52.918 7.39425 53.7795C8.24695 54.641 9.40347 55.125 10.6094 55.125H24.25V49C24.25 47.3755 24.8887 45.8176 26.0257 44.669C27.1626 43.5203 28.7046 42.875 30.3125 42.875H54.5625C56.1704 42.875 57.7124 43.5203 58.8493 44.669C59.9863 45.8176 60.625 47.3755 60.625 49V51.6919C59.3325 51.6897 58.0543 51.9658 56.8756 52.5018C55.697 53.0378 54.6449 53.8214 53.7895 54.8004L53.7168 54.8861L53.3015 55.4129L49.1305 61.25H10.6094C7.79559 61.25 5.09706 60.1207 3.10741 58.1106C1.11777 56.1004 0 53.374 0 50.5312V10.7188ZM54.5625 24.5C54.5625 27.7489 53.285 30.8647 51.0112 33.1621C48.7373 35.4594 45.6533 36.75 42.4375 36.75C39.2217 36.75 36.1377 35.4594 33.8638 33.1621C31.59 30.8647 30.3125 27.7489 30.3125 24.5C30.3125 21.2511 31.59 18.1353 33.8638 15.8379C36.1377 13.5406 39.2217 12.25 42.4375 12.25C45.6533 12.25 48.7373 13.5406 51.0112 15.8379C53.285 18.1353 54.5625 21.2511 54.5625 24.5ZM71.7982 30.6617C72.4693 29.4373 73.5353 28.4819 74.8187 27.9548C76.1021 27.4277 77.5255 27.3606 78.8519 27.7646L81.0253 28.4261L81.6073 28.6221C83.4077 29.2876 84.9959 30.4335 86.2032 31.9379C87.4105 33.4424 88.1918 35.2493 88.464 37.1665C89.3643 43.4997 87.3515 50.9049 82.4985 59.3972C77.6576 67.8681 72.3287 73.3254 66.4632 75.7142C64.5786 76.4816 62.5155 76.6861 60.5192 76.3033C58.5229 75.9206 56.6774 74.9667 55.2021 73.5551L53.5592 71.981L53.1893 71.5951C52.2757 70.5536 51.7403 69.2288 51.6714 67.8388C51.6026 66.4488 52.0043 65.0766 52.8104 63.9481L56.9238 58.1906L57.1997 57.8414C57.7774 57.18 58.5314 56.7007 59.3716 56.4607C60.2117 56.2206 61.1025 56.23 61.9375 56.4878L68.1546 58.408L68.3153 58.4386H68.4456C69.1883 58.3559 70.6978 56.84 72.553 53.5938C74.6142 49.9861 75.0386 47.8761 74.4718 47.3309L71.3102 44.3542L70.907 43.9469C69.9005 42.8449 69.2369 41.4684 68.9987 39.9884C68.7605 38.5084 68.9582 36.9904 69.5672 35.623L71.5739 31.1181L71.7982 30.6617Z" fill="black"/>
</svg>
