<svg width="38" height="42" viewBox="0 0 38 42" fill="none" xmlns="http://www.w3.org/2000/svg">
<path d="M8.58333 0.166687C6.29167 0.166687 4.41667 2.04169 4.41667 4.33335C4.41667 6.62502 6.29167 8.50002 8.58333 8.50002C10.875 8.50002 12.75 6.64585 12.75 4.33335C12.75 2.02085 10.8958 0.166687 8.58333 0.166687ZM4.41667 10.5834C2.10417 10.5834 0.25 12.4375 0.25 14.75V27.25H4.41667V41.8334H14.8333V20.1667L20.1042 29.3334H25.1875L27.3333 26.5417V41.8334H35.6667V31.4167H37.75V25.1667C37.75 22.8542 35.8958 21 33.5833 21H28.375C27.125 21 26.0208 21.5417 25.25 22.4167C24.5625 23.2917 23.8333 24.25 23.1667 25.1667H22.5208L14.8333 11.9584C14.5 11.375 13.2083 10.5834 11.7083 10.5834H4.41667ZM31.5 12.6667C29.7708 12.6667 28.375 14.0625 28.375 15.7917C28.375 17.5209 29.7708 18.9167 31.5 18.9167C33.2292 18.9167 34.625 17.5209 34.625 15.7917C34.625 14.0625 33.2292 12.6667 31.5 12.6667Z" fill="black"/>
</svg>
