<svg width="46" height="44" viewBox="0 0 46 44" fill="none" xmlns="http://www.w3.org/2000/svg">
<path fill-rule="evenodd" clip-rule="evenodd" d="M2.54527 24.4C0.454361 24.4 -0.527457 21.6712 1.03618 20.2072L21.4907 1.00718C21.9066 0.617147 22.4436 0.401733 22.9998 0.401733C23.5561 0.401733 24.093 0.617147 24.5089 1.00718L44.9634 20.2072C46.5271 21.6712 45.5453 24.4 43.4544 24.4H41.1816V41.2C41.1816 41.8365 40.9422 42.4469 40.516 42.897C40.0897 43.3471 39.5117 43.6 38.9089 43.6H7.09072C6.48796 43.6 5.90988 43.3471 5.48366 42.897C5.05744 42.4469 4.818 41.8365 4.818 41.2V24.4H2.54527ZM16.1816 38.8V26.8C16.1816 26.1635 16.4211 25.553 16.8473 25.1029C17.2735 24.6528 17.8516 24.4 18.4544 24.4H27.5453C28.148 24.4 28.7261 24.6528 29.1523 25.1029C29.5786 25.553 29.818 26.1635 29.818 26.8V38.8H36.6362V22C36.6361 21.573 36.7439 21.1538 36.9485 20.7854C37.153 20.4171 37.4469 20.1131 37.7998 19.9048L22.9998 6.00878L8.19982 19.9048C8.55273 20.1131 8.84662 20.4171 9.05117 20.7854C9.25571 21.1538 9.36351 21.573 9.36345 22V38.8H16.1816ZM20.7271 38.8V29.2H25.2725V38.8H20.7271Z" fill="black"/>
</svg>
