<svg width="42" height="42" viewBox="0 0 42 42" fill="none" xmlns="http://www.w3.org/2000/svg">
<path d="M15.5899 29.3875L16.9232 29.1584C17.1816 29.1125 17.4899 29.0459 17.8462 28.9542C22.2503 27.85 25.167 24.5584 25.167 21C25.167 16.5521 20.6337 12.6667 14.7503 12.6667C8.86699 12.6667 4.33366 16.5521 4.33366 21C4.33366 23.5375 5.79616 25.9542 8.35658 27.5625L8.43157 27.6042L10.5837 28.7917V34.5479L15.5899 29.3875ZM17.6357 33.2625L9.99616 41.1375C9.70745 41.4353 9.3364 41.6402 8.93055 41.7259C8.5247 41.8115 8.10252 41.7741 7.71808 41.6183C7.33363 41.4626 7.00443 41.1956 6.77264 40.8516C6.54085 40.5077 6.41701 40.1023 6.41699 39.6875V31.25C6.32392 31.1997 6.23222 31.1469 6.14199 31.0917C2.51908 28.8167 0.166992 25.1438 0.166992 21C0.166992 14.0959 6.69616 8.50002 14.7503 8.50002C22.8045 8.50002 29.3337 14.0959 29.3337 21C29.3337 26.6792 24.9149 31.475 18.8628 32.9959C18.4572 33.0998 18.0479 33.1888 17.6357 33.2625ZM14.617 6.41669C17.1378 2.68127 21.8545 0.166687 27.2503 0.166687C35.3045 0.166687 41.8337 5.76252 41.8337 12.6667C41.8337 16.8104 39.4795 20.4834 35.8587 22.7584C35.7684 22.8136 35.6767 22.8664 35.5837 22.9167V31.3542C35.5836 31.769 35.4598 32.1743 35.228 32.5183C34.9962 32.8623 34.667 33.1292 34.2826 33.285C33.8981 33.4407 33.4759 33.4782 33.0701 33.3925C32.6642 33.3069 32.2932 33.102 32.0045 32.8042L28.3899 29.0792L30.5628 25.3334L31.417 26.2146V20.4584L33.5691 19.2709L33.6441 19.2292C36.2066 17.6209 37.667 15.2042 37.667 12.6667C37.667 8.21877 33.1337 4.33335 27.2503 4.33335C24.5837 4.33335 22.1962 5.13127 20.3816 6.41669H14.617Z" fill="black"/>
</svg>
