<svg width="42" height="42" viewBox="0 0 42 42" fill="none" xmlns="http://www.w3.org/2000/svg">
<path d="M24.7914 41.8334H17.2081C16.7329 41.8334 16.272 41.6711 15.9018 41.3733C15.5316 41.0754 15.2743 40.66 15.1726 40.1959L14.3247 36.2709C13.1936 35.7752 12.121 35.1555 11.1268 34.4229L7.29972 35.6417C6.84672 35.7861 6.35795 35.7713 5.91455 35.5996C5.47116 35.428 5.09982 35.1098 4.86222 34.6979L1.06222 28.1334C0.827104 27.7211 0.738849 27.2413 0.81189 26.7724C0.884931 26.3035 1.11495 25.8733 1.4643 25.5521L4.43305 22.8438C4.29804 21.6169 4.29804 20.379 4.43305 19.1521L1.4643 16.45C1.11445 16.1287 0.884124 15.6981 0.81107 15.2287C0.738017 14.7594 0.826571 14.2791 1.06222 13.8667L4.85388 7.29794C5.09149 6.88609 5.46282 6.56792 5.90622 6.39624C6.34961 6.22457 6.83839 6.20973 7.29139 6.35419L11.1185 7.57294C11.6268 7.19794 12.156 6.84794 12.7018 6.53127C13.2289 6.23544 13.7705 5.96669 14.3247 5.7271L15.1747 1.80627C15.2759 1.3421 15.5327 0.926453 15.9025 0.628247C16.2723 0.330041 16.733 0.167187 17.2081 0.166687H24.7914C25.2665 0.167187 25.7271 0.330041 26.0969 0.628247C26.4667 0.926453 26.7235 1.3421 26.8247 1.80627L27.6831 5.72919C28.8127 6.22766 29.885 6.84726 30.881 7.5771L34.7101 6.35835C35.1628 6.21443 35.6512 6.22954 36.0941 6.40119C36.537 6.57283 36.908 6.89071 37.1455 7.3021L40.9372 13.8709C41.4205 14.7188 41.2539 15.7917 40.5351 16.4521L37.5664 19.1604C37.7014 20.3873 37.7014 21.6252 37.5664 22.8521L40.5351 25.5604C41.2539 26.2229 41.4205 27.2938 40.9372 28.1417L37.1455 34.7104C36.9079 35.1223 36.5366 35.4405 36.0932 35.6121C35.6498 35.7838 35.161 35.7986 34.708 35.6542L30.881 34.4354C29.8875 35.1674 28.8156 35.7865 27.6851 36.2813L26.8247 40.1959C26.7231 40.6596 26.4661 41.0748 26.0964 41.3726C25.7266 41.6704 25.2662 41.833 24.7914 41.8334ZM20.9914 12.6667C18.7812 12.6667 16.6616 13.5447 15.0988 15.1075C13.536 16.6703 12.6581 18.7899 12.6581 21C12.6581 23.2102 13.536 25.3298 15.0988 26.8926C16.6616 28.4554 18.7812 29.3334 20.9914 29.3334C23.2015 29.3334 25.3211 28.4554 26.8839 26.8926C28.4467 25.3298 29.3247 23.2102 29.3247 21C29.3247 18.7899 28.4467 16.6703 26.8839 15.1075C25.3211 13.5447 23.2015 12.6667 20.9914 12.6667Z" fill="black"/>
</svg>
